<svg width="1766" height="284" viewBox="0 0 1766 284" fill="none" xmlns="http://www.w3.org/2000/svg">
<path d="M27.4422 196.099C51.836 149.918 134.084 128.24 201.899 118.075C245.015 111.945 288.452 108.499 331.999 107.752C342.624 101.305 353.995 94.7931 366.113 88.234C352.407 87.6623 35.5271 81.0082 3.49393 204.231L0 217.73L13.9122 216.428C14.881 216.428 108.154 207.233 192.199 231.229H192.183C195.74 225.417 199.615 219.81 203.808 214.443C134.168 193.05 59.268 194.146 27.4422 196.099Z" fill="url(#paint0_linear_72_47)"/>
<path d="M63.5898 175.246C63.5898 175.246 76.8824 179.312 82.33 173.992V173.976C86.0621 169.736 90.223 165.892 94.7335 162.478C94.7335 162.478 65.4165 164.352 63.5898 175.246Z" fill="url(#paint1_linear_72_47)"/>
<path d="M118.761 179.06C154.78 180.855 191.942 185.159 224.959 190.082C229.549 185.365 234.631 180.362 240.285 175.121C147.332 170.119 118.761 179.06 118.761 179.06Z" fill="url(#paint2_linear_72_47)"/>
<path d="M139.199 152.759C182.49 149.631 225.927 148.868 269.299 150.488C277.43 144.104 286.34 137.482 296.043 130.732C173.359 136.989 139.199 152.759 139.199 152.759Z" fill="url(#paint3_linear_72_47)"/>
<path d="M471.5 231L390.641 81H412.125L484 217.719L555.875 81H577.066L496.5 231H471.5ZM590.25 231L677.75 81H702.75L790.25 231H768.375L749.625 196.625H630.875L612.125 231H590.25ZM640.25 181H740.25L690.25 93.5L640.25 181ZM815.25 231V81H834.781L985.465 207.855H985.66V81H1004.41V231H984.879L834.195 103.07H834V231H815.25ZM1107.44 231V96.625H1032.44V81H1201.19V96.625H1126.19V231H1107.44ZM1184.78 231L1272.28 81H1297.28L1384.78 231H1362.91L1344.16 196.625H1225.41L1206.66 231H1184.78ZM1234.78 181H1334.78L1284.78 93.5L1234.78 181ZM1397.28 231L1482.54 151.898L1403.53 81H1430.09L1495.52 139.789L1558.9 81H1585.46L1509.1 151.898L1597.28 231H1570.72L1496.01 164.008L1423.84 231H1397.28Z" fill="white"/>
<path d="M1661.55 148L1638.99 87.904H1638.61C1638.74 89.184 1638.83 90.816 1638.9 92.8C1639.02 94.784 1639.12 96.96 1639.18 99.328C1639.25 101.632 1639.28 104 1639.28 106.432V148H1631.31V79.456H1644.08L1665.2 135.616H1665.58L1687.09 79.456H1699.76V148H1691.22V105.856C1691.22 103.616 1691.25 101.408 1691.31 99.232C1691.38 96.992 1691.47 94.912 1691.6 92.992C1691.73 91.008 1691.82 89.344 1691.89 88H1691.5L1668.66 148H1661.55ZM1764.97 148H1755.17L1737.03 118.24L1718.6 148H1709.48L1732.23 112.288L1710.92 79.456H1720.52L1737.32 106.336L1754.21 79.456H1763.33L1742.12 112.096L1764.97 148Z" fill="white"/>
<defs>
<linearGradient id="paint0_linear_72_47" x1="167.5" y1="92" x2="339" y2="309" gradientUnits="userSpaceOnUse">
<stop stop-color="#0174D9"/>
<stop offset="0.471154" stop-color="#002761"/>
<stop offset="1" stop-color="#00101F"/>
</linearGradient>
<linearGradient id="paint1_linear_72_47" x1="77.8383" y1="162.876" x2="95.327" y2="181.791" gradientUnits="userSpaceOnUse">
<stop stop-color="#0174D9"/>
<stop offset="0.471154" stop-color="#002761"/>
<stop offset="1" stop-color="#00101F"/>
</linearGradient>
<linearGradient id="paint2_linear_72_47" x1="174.358" y1="174.061" x2="184.696" y2="211.795" gradientUnits="userSpaceOnUse">
<stop stop-color="#0174D9"/>
<stop offset="0.471154" stop-color="#002761"/>
<stop offset="1" stop-color="#00101F"/>
</linearGradient>
<linearGradient id="paint3_linear_72_47" x1="210.957" y1="131.347" x2="225.193" y2="181.526" gradientUnits="userSpaceOnUse">
<stop stop-color="#0174D9"/>
<stop offset="0.471154" stop-color="#002761"/>
<stop offset="1" stop-color="#00101F"/>
</linearGradient>
</defs>
</svg>
